<?xml version="1.0" standalone="no"?>
<!DOCTYPE svg PUBLIC "-//W3C//DTD SVG 20010904//EN"
 "http://www.w3.org/TR/2001/REC-SVG-20010904/DTD/svg10.dtd">
<svg version="1.0" xmlns="http://www.w3.org/2000/svg"
 width="808.000000pt" height="808.000000pt" viewBox="0 0 808.000000 808.000000"
 preserveAspectRatio="xMidYMid meet">
<metadata>
Created by potrace 1.14, written by Peter Selinger 2001-2017
</metadata>
<g transform="translate(0.000000,808.000000) scale(0.100000,-0.100000)"
fill="#000000" stroke="none">
<path d="M3860 8034 c-385 -40 -631 -133 -785 -296 -87 -92 -103 -143 -87
-271 6 -50 10 -92 9 -93 -1 0 -68 -40 -148 -87 l-146 -86 -64 9 c-307 45 -740
-57 -958 -224 -74 -57 -108 -97 -139 -165 -23 -50 -24 -60 -17 -140 5 -47 9
-103 9 -125 l1 -39 -305 -179 c-168 -99 -312 -186 -322 -194 -40 -37 -41 -60
-13 -306 15 -128 31 -273 36 -323 5 -49 15 -146 23 -215 8 -69 22 -188 31
-265 8 -77 22 -201 31 -275 8 -74 20 -184 26 -245 12 -122 25 -158 67 -179 15
-8 167 -54 337 -101 170 -47 363 -101 429 -120 66 -18 212 -59 325 -90 304
-85 443 -124 445 -127 3 -5 57 -401 110 -808 20 -151 45 -340 56 -420 11 -80
26 -194 34 -255 8 -60 24 -175 35 -255 10 -80 35 -269 55 -420 20 -151 42
-320 50 -375 7 -55 23 -170 34 -255 12 -85 30 -221 41 -301 11 -80 17 -167 14
-195 -3 -27 -1 -54 3 -59 14 -18 62 -45 79 -45 10 0 87 -19 173 -41 562 -149
889 -236 1234 -328 82 -22 155 -45 162 -51 21 -18 123 0 155 26 32 27 1445
891 1505 920 22 10 47 33 57 50 18 30 18 32 -6 85 -13 30 -27 81 -30 114 -4
33 -16 125 -27 205 -11 80 -39 296 -64 480 -76 576 -94 710 -115 865 -11 83
-41 302 -65 489 -25 186 -47 355 -50 375 -85 626 -96 724 -88 731 4 5 265 165
578 355 314 191 578 355 589 364 10 9 24 28 32 44 15 29 14 37 -66 632 -21
156 -69 522 -116 875 -14 113 -33 217 -40 232 -8 15 -27 34 -43 42 -15 8 -153
47 -307 86 -153 39 -287 73 -296 76 -18 5 -24 33 -37 159 -10 96 -29 141 -84
196 -209 208 -804 223 -1208 29 l-67 -31 -163 41 c-90 23 -165 42 -166 43 -1
1 -6 43 -12 94 -11 105 -33 154 -89 205 -80 73 -188 118 -337 143 -87 15 -249
25 -305 19z m287 -217 c125 -35 183 -82 183 -145 0 -30 -9 -44 -54 -88 -131
-127 -411 -205 -686 -191 -318 17 -438 134 -280 274 77 68 268 140 435 163 88
13 340 4 402 -13z m1681 -372 c122 -29 202 -86 202 -145 0 -96 -185 -209 -431
-261 -133 -29 -358 -32 -462 -6 -133 33 -197 81 -197 147 0 36 6 47 49 89 86
87 289 166 491 191 96 11 267 4 348 -15z m-1458 -113 c0 -55 -34 -112 -88
-151 -151 -107 -465 -176 -691 -151 -194 21 -288 75 -307 174 -7 38 -6 39 17
32 148 -42 401 -49 591 -17 136 24 306 77 398 126 36 19 68 34 73 35 4 0 7
-22 7 -48z m311 -46 l27 -6 -16 -44 c-17 -47 -15 -80 23 -366 23 -174 61 -237
188 -314 90 -53 193 -81 352 -95 193 -17 448 16 634 81 185 65 347 178 402
283 27 51 24 50 137 18 48 -13 52 -16 35 -27 -10 -7 -216 -129 -458 -271 -718
-421 -1393 -817 -1670 -981 l-260 -153 -105 28 c-58 16 -170 46 -250 66 -80
21 -237 62 -350 91 -113 30 -268 70 -345 91 -77 20 -230 60 -340 88 -110 29
-290 76 -400 105 -110 29 -290 76 -400 105 -110 28 -265 69 -345 90 -80 21
-149 41 -153 45 -4 4 41 35 100 69 l107 62 35 -42 c103 -123 312 -192 581
-192 387 1 759 139 901 337 22 29 29 34 29 20 0 -10 5 -50 10 -89 5 -38 16
-124 25 -190 25 -191 76 -267 230 -340 127 -60 193 -70 440 -69 202 0 229 2
332 27 361 85 587 250 609 443 3 28 -3 112 -15 196 -12 82 -21 165 -21 185 0
55 -40 132 -93 180 -94 86 -234 135 -444 155 l-122 12 92 31 c112 38 182 73
264 131 90 64 140 131 176 236 4 10 12 16 19 14 7 -3 25 -7 39 -10z m-1621
-216 c7 -17 39 -54 70 -84 98 -90 253 -142 457 -153 l102 -6 -84 -28 c-170
-57 -325 -151 -395 -241 -27 -34 -40 -44 -40 -31 0 10 -7 68 -15 128 -8 61
-19 149 -24 197 -11 97 -27 136 -78 190 -20 20 -32 41 -29 47 12 18 23 12 36
-19z m-495 -50 c181 -20 305 -83 305 -156 0 -99 -178 -209 -425 -264 -140 -31
-388 -32 -488 -2 -79 24 -152 64 -167 92 -5 10 -10 35 -10 55 0 110 273 245
550 274 120 12 134 12 235 1z m3500 -107 c-17 -71 -152 -164 -305 -211 -190
-58 -472 -69 -613 -23 -98 32 -167 100 -167 164 l0 23 73 -19 c112 -30 421
-30 575 1 130 26 255 68 362 122 l75 38 3 -36 c2 -19 1 -46 -3 -59z m-1775
-250 c263 -63 265 -207 5 -328 -291 -136 -735 -136 -871 0 -18 18 -24 35 -24
65 0 36 6 47 49 89 152 153 570 239 841 174z m2414 -145 c9 -68 32 -240 50
-383 19 -143 49 -366 66 -495 18 -129 36 -264 40 -300 5 -36 5 -68 1 -73 -4
-4 -545 -335 -1202 -735 -706 -431 -1197 -724 -1200 -718 -4 6 -19 103 -33
216 -15 113 -36 270 -47 350 -10 80 -35 264 -54 410 -19 146 -40 303 -46 348
-6 47 -7 87 -3 91 5 4 194 116 419 248 487 286 1415 830 1745 1024 129 77 238
139 241 139 3 0 13 -55 23 -122z m-3805 -60 c-17 -42 -97 -109 -173 -147 -37
-18 -119 -46 -184 -63 -110 -30 -128 -31 -302 -32 -201 0 -267 13 -346 66 -36
24 -74 89 -74 126 0 19 3 20 27 11 15 -5 72 -16 128 -24 284 -41 606 10 850
133 l80 40 3 -40 c2 -23 -2 -54 -9 -70z m1617 -346 c-117 -226 -810 -332
-1022 -155 -39 33 -72 123 -45 123 6 0 40 -8 78 -17 107 -27 434 -24 568 5
131 29 262 73 355 120 l75 38 3 -42 c2 -24 -3 -55 -12 -72z m-3095 -273 c107
-27 253 -65 324 -84 72 -19 252 -66 400 -104 466 -122 696 -182 805 -211 58
-15 213 -56 345 -90 372 -97 636 -168 640 -172 5 -5 23 -130 70 -483 19 -148
49 -373 66 -500 43 -318 57 -429 54 -433 -3 -3 -95 22 -440 118 -55 15 -190
53 -300 83 -110 31 -290 81 -400 112 -110 31 -222 62 -250 70 -56 15 -124 34
-720 200 -522 145 -507 141 -582 161 -40 10 -63 22 -63 31 0 20 -138 1270
-146 1316 -3 20 -4 37 -1 37 2 0 92 -23 198 -51z m4404 -1551 c5 -31 14 -102
80 -595 14 -104 34 -255 45 -338 11 -82 40 -301 65 -485 79 -600 94 -713 115
-865 71 -525 101 -759 98 -771 -3 -13 -1359 -846 -1366 -840 -3 3 -40 279
-117 851 -13 105 -34 258 -45 340 -11 83 -41 303 -66 490 -43 328 -51 388 -93
705 -74 554 -94 711 -90 713 2 2 126 77 274 167 149 89 306 185 350 212 291
179 731 447 737 447 4 1 10 -14 13 -31z m-2874 -472 c117 -34 308 -87 344 -96
17 -4 219 -60 450 -125 231 -65 440 -123 465 -129 l45 -12 12 -90 c7 -49 19
-141 27 -204 8 -63 26 -200 40 -305 14 -104 35 -260 46 -345 12 -85 27 -202
35 -260 8 -58 23 -170 34 -250 11 -80 36 -269 56 -420 20 -151 50 -374 66
-495 28 -209 38 -283 74 -560 8 -66 17 -129 20 -141 5 -22 -25 -15 -585 136
-41 11 -194 52 -340 90 -146 38 -287 76 -315 84 -27 8 -74 19 -103 26 -61 14
-53 -6 -82 220 -12 91 -30 230 -40 310 -11 80 -27 195 -35 255 -8 61 -23 175
-34 255 -11 80 -36 269 -56 420 -35 270 -60 456 -90 675 -48 345 -125 938
-125 960 0 14 2 25 4 25 2 0 41 -11 87 -24z"/>
</g>
</svg>
